<svg width="20" height="17" viewBox="0 0 20 17" fill="none" xmlns="http://www.w3.org/2000/svg">
<path d="M17.7083 0H2.125C0.95625 0 0 0.95625 0 2.125V14.875C0 16.0437 0.95625 17 2.125 17H17.7083C18.8771 17 19.8333 16.0437 19.8333 14.875V2.125C19.8333 0.95625 18.8771 0 17.7083 0ZM18.4167 14.875C18.4167 15.2646 18.0979 15.5833 17.7083 15.5833H2.125C1.73542 15.5833 1.41667 15.2646 1.41667 14.875V2.125C1.41667 1.73542 1.73542 1.41667 2.125 1.41667H17.7083C18.0979 1.41667 18.4167 1.73542 18.4167 2.125V14.875Z" fill="#FF7B29"/>
<path d="M16.2918 2.83325H13.4585C13.2672 2.83325 13.0902 2.91117 12.9556 3.03867L11.9639 4.03033C11.0077 3.2795 9.81058 2.83325 8.50016 2.83325C5.37641 2.83325 2.8335 5.37617 2.8335 8.49992C2.8335 11.6237 5.37641 14.1666 8.50016 14.1666C11.6239 14.1666 14.1668 11.6237 14.1668 8.49992C14.1668 7.1895 13.7206 5.99242 12.9697 5.02909L13.7489 4.24992H16.2918C16.6814 4.24992 17.0002 3.93117 17.0002 3.54159C17.0002 3.152 16.6814 2.83325 16.2918 2.83325ZM12.7502 8.49992C12.7502 10.8445 10.8447 12.7499 8.50016 12.7499C6.15558 12.7499 4.25016 10.8445 4.25016 8.49992C4.25016 6.15534 6.15558 4.24992 8.50016 4.24992C9.41391 4.24992 10.2639 4.54742 10.9581 5.03617L10.1222 5.872C9.846 6.14825 9.846 6.5945 10.1222 6.87075C10.2639 7.01242 10.441 7.08325 10.6252 7.08325C10.8093 7.08325 10.9864 7.01242 11.1281 6.87784L11.9639 6.042C12.4527 6.73617 12.7502 7.58617 12.7502 8.49992Z" fill="#FF7B29"/>
<path d="M8.50016 9.91659C9.28257 9.91659 9.91683 9.28232 9.91683 8.49992C9.91683 7.71752 9.28257 7.08325 8.50016 7.08325C7.71776 7.08325 7.0835 7.71752 7.0835 8.49992C7.0835 9.28232 7.71776 9.91659 8.50016 9.91659Z" fill="#FF7B29"/>
<path d="M16.2915 12.75H14.8748C14.4853 12.75 14.1665 13.0687 14.1665 13.4583C14.1665 13.8479 14.4853 14.1667 14.8748 14.1667H16.2915C16.6811 14.1667 16.9998 13.8479 16.9998 13.4583C16.9998 13.0687 16.6811 12.75 16.2915 12.75Z" fill="#FF7B29"/>
<path d="M16.2918 11.3334C16.683 11.3334 17.0002 11.0163 17.0002 10.6251C17.0002 10.2339 16.683 9.91675 16.2918 9.91675C15.9006 9.91675 15.5835 10.2339 15.5835 10.6251C15.5835 11.0163 15.9006 11.3334 16.2918 11.3334Z" fill="#FF7B29"/>
<path d="M16.2918 8.49992C16.683 8.49992 17.0002 8.18279 17.0002 7.79159C17.0002 7.40038 16.683 7.08325 16.2918 7.08325C15.9006 7.08325 15.5835 7.40038 15.5835 7.79159C15.5835 8.18279 15.9006 8.49992 16.2918 8.49992Z" fill="#FF7B29"/>
</svg>
