<svg width="20" height="20" viewBox="0 0 20 20" fill="none" xmlns="http://www.w3.org/2000/svg">
<path d="M16.2571 19.1667C15.1225 19.1667 15.8399 19.3333 15.8399 18.3333C15.8399 17.525 14.7095 16.225 14.4801 15.9708C14.441 15.9279 14.3933 15.8935 14.3402 15.87C14.287 15.8466 14.2295 15.8344 14.1714 15.8344C14.1133 15.8344 14.0558 15.8466 14.0026 15.87C13.9495 15.8935 13.9018 15.9279 13.8627 15.9708C13.6333 16.225 12.5028 17.525 12.5028 18.3333C12.5041 18.6271 12.5848 18.915 12.7364 19.1667H11.435C11.5866 18.915 11.6673 18.6271 11.6686 18.3333C11.6686 17.525 10.5381 16.225 10.3087 15.9708C10.2696 15.9279 10.2219 15.8935 10.1688 15.87C10.1156 15.8466 10.0581 15.8344 10 15.8344C9.94187 15.8344 9.88439 15.8466 9.83123 15.87C9.77807 15.8935 9.73041 15.9279 9.69132 15.9708C9.46189 16.225 8.33145 17.525 8.33145 18.3333C8.33268 18.6271 8.41339 18.915 8.56504 19.1667H7.26357C7.41522 18.915 7.49594 18.6271 7.49717 18.3333C7.49717 17.525 6.36672 16.225 6.1373 15.9708C6.0982 15.9279 6.05054 15.8935 5.99739 15.87C5.94423 15.8466 5.88674 15.8344 5.82861 15.8344C5.77049 15.8344 5.713 15.8466 5.65984 15.87C5.60668 15.8935 5.55903 15.9279 5.51993 15.9708C5.29051 16.225 4.16006 17.525 4.16006 18.3333C4.16006 19.3292 4.87337 19.1667 3.74292 19.1667C3.63229 19.1667 3.52619 19.2106 3.44796 19.2887C3.36973 19.3668 3.32578 19.4728 3.32578 19.5833C3.32578 19.6938 3.36973 19.7998 3.44796 19.878C3.52619 19.9561 3.63229 20 3.74292 20H16.2571C16.3677 20 16.4738 19.9561 16.552 19.878C16.6303 19.7998 16.6742 19.6938 16.6742 19.5833C16.6742 19.4728 16.6303 19.3668 16.552 19.2887C16.4738 19.2106 16.3677 19.1667 16.2571 19.1667ZM13.3371 18.3333C13.3371 18.0667 13.7292 17.4458 14.1714 16.8958C14.6136 17.45 15.0057 18.075 15.0057 18.3333C15.0057 18.5543 14.9178 18.7663 14.7613 18.9226C14.6049 19.0789 14.3926 19.1667 14.1714 19.1667C13.9501 19.1667 13.7379 19.0789 13.5815 18.9226C13.425 18.7663 13.3371 18.5543 13.3371 18.3333ZM9.16572 18.3333C9.16572 18.0667 9.55783 17.4458 10 16.8958C10.4422 17.45 10.8343 18.075 10.8343 18.3333C10.8343 18.5543 10.7464 18.7663 10.5899 18.9226C10.4335 19.0789 10.2213 19.1667 10 19.1667C9.77874 19.1667 9.56653 19.0789 9.41008 18.9226C9.25362 18.7663 9.16572 18.5543 9.16572 18.3333ZM4.99434 18.3333C4.99434 18.0667 5.38645 17.4458 5.82861 16.8958C6.27078 17.45 6.66289 18.075 6.66289 18.3333C6.66289 18.5543 6.57499 18.7663 6.41854 18.9226C6.26208 19.0789 6.04988 19.1667 5.82861 19.1667C5.60735 19.1667 5.39515 19.0789 5.23869 18.9226C5.08223 18.7663 4.99434 18.5543 4.99434 18.3333ZM18.3052 5.83333H1.69477C1.31219 5.8368 0.941817 5.9683 0.642879 6.20681C0.34394 6.44532 0.1337 6.77707 0.0457755 7.14901C-0.042149 7.52094 -0.00267979 7.91159 0.157872 8.25847C0.318424 8.60536 0.590786 8.88846 0.931407 9.0625L2.49151 9.84167V11.25C2.49151 12.2446 2.88704 13.1984 3.5911 13.9016C4.29516 14.6049 5.25006 15 6.24575 15H13.7542C14.7499 15 15.7048 14.6049 16.4089 13.9016C17.113 13.1984 17.5085 12.2446 17.5085 11.25V9.84167L19.0686 9.0625C19.4092 8.88846 19.6816 8.60536 19.8421 8.25847C20.0027 7.91159 20.0421 7.52094 19.9542 7.14901C19.8663 6.77707 19.6561 6.44532 19.3571 6.20681C19.0582 5.9683 18.6878 5.8368 18.3052 5.83333ZM1.30683 8.33333C1.12113 8.25139 0.969884 8.10727 0.879178 7.92585C0.788473 7.74443 0.763996 7.53708 0.809971 7.33956C0.855946 7.14205 0.969489 6.96675 1.13102 6.84391C1.29254 6.72106 1.49192 6.65838 1.69477 6.66667H2.49151V8.90833L1.30683 8.33333ZM16.6742 11.25C16.6742 12.0235 16.3666 12.7654 15.819 13.3124C15.2714 13.8594 14.5287 14.1667 13.7542 14.1667H6.24575C5.47133 14.1667 4.72862 13.8594 4.18102 13.3124C3.63342 12.7654 3.32578 12.0235 3.32578 11.25V6.66667H16.6742V11.25ZM18.6932 8.33333L17.5085 8.90833V6.66667H18.3052C18.5081 6.65838 18.7075 6.72106 18.869 6.84391C19.0305 6.96675 19.1441 7.14205 19.19 7.33956C19.236 7.53708 19.2115 7.74443 19.1208 7.92585C19.0301 8.10727 18.8789 8.25139 18.6932 8.33333ZM9.73303 3.56667C8.8779 4.27917 9.1115 5 9.58286 5C9.69349 5 9.79959 4.9561 9.87782 4.87796C9.95605 4.79982 10 4.69384 10 4.58333C10 4.2 10.8343 4.07917 10.8343 3.19583C10.8343 2.08333 9.42435 2.12917 10.267 1.42917C11.1096 0.729167 10.8927 0 10.4171 0C10.3065 0 10.2004 0.0438987 10.1222 0.122039C10.0439 0.200179 10 0.30616 10 0.416667C10 0.8 9.16572 0.920833 9.16572 1.80417C9.16572 2.6875 10 2.8125 10 3.19583C10 3.33333 9.93326 3.4 9.73303 3.56667ZM6.39592 3.56667C5.54079 4.27917 5.77439 5 6.24575 5C6.35638 5 6.46249 4.9561 6.54071 4.87796C6.61894 4.79982 6.66289 4.69384 6.66289 4.58333C6.66289 4.2 7.49717 4.07917 7.49717 3.19583C7.49717 2.08333 6.08724 2.12917 6.92986 1.42917C7.77248 0.729167 7.55557 0 7.08003 0C6.9694 0 6.8633 0.0438987 6.78507 0.122039C6.70684 0.200179 6.66289 0.30616 6.66289 0.416667C6.66289 0.8 5.82861 0.920833 5.82861 1.80417C5.82861 2.6875 6.66289 2.8125 6.66289 3.19583C6.66289 3.33333 6.59615 3.4 6.39592 3.56667ZM13.0701 3.56667C12.215 4.27917 12.4486 5 12.92 5C13.0306 5 13.1367 4.9561 13.2149 4.87796C13.2932 4.79982 13.3371 4.69384 13.3371 4.58333C13.3371 4.2 14.1714 4.07917 14.1714 3.19583C14.1714 2.08333 12.7615 2.12917 13.6041 1.42917C14.4467 0.729167 14.2298 0 13.7542 0C13.6436 0 13.5375 0.0438987 13.4593 0.122039C13.3811 0.200179 13.3371 0.30616 13.3371 0.416667C13.3371 0.8 12.5028 0.920833 12.5028 1.80417C12.5028 2.6875 13.3371 2.8125 13.3371 3.19583C13.3371 3.33333 13.2704 3.4 13.0701 3.56667Z" fill="#FF7B29"/>
</svg>
