<svg width="23" height="23" viewBox="0 0 23 23" fill="none" xmlns="http://www.w3.org/2000/svg">
<path d="M4.44667 14.6337V19.2529C4.44919 19.4851 4.54319 19.7069 4.70826 19.8702C4.87334 20.0334 5.09615 20.125 5.32833 20.125H10.7142V14.6337H4.44667ZM12.2858 20.125H17.6717C17.9038 20.125 18.1267 20.0334 18.2917 19.8702C18.4568 19.7069 18.5508 19.4851 18.5533 19.2529V14.6337H12.2858V20.125ZM19.2625 6.79458H17.4992C17.6798 6.42775 17.7748 6.02471 17.7771 5.61583C17.7745 4.88804 17.4837 4.19092 16.9681 3.67719C16.4526 3.16345 15.7545 2.875 15.0267 2.875C14.2664 2.91106 13.5318 3.16145 12.9077 3.59726C12.2837 4.03307 11.7957 4.63653 11.5 5.33792C11.2043 4.63653 10.7163 4.03307 10.0923 3.59726C9.46823 3.16145 8.73364 2.91106 7.97333 2.875C7.24553 2.875 6.5474 3.16345 6.03188 3.67719C5.51635 4.19092 5.22545 4.88804 5.22292 5.61583C5.22519 6.02471 5.32021 6.42775 5.50083 6.79458H3.7375C3.25833 6.79458 2.875 7.36 2.875 8.05V11.8162C2.875 12.5062 3.25833 13.0717 3.7375 13.0717H10.7142V6.79458H12.2858V13.0717H19.2625C19.7417 13.0717 20.125 12.5062 20.125 11.8162V8.05C20.125 7.36 19.7417 6.79458 19.2625 6.79458ZM7.97333 6.79458C7.81025 6.80933 7.64589 6.78994 7.49072 6.73765C7.33554 6.68536 7.19297 6.60131 7.07208 6.49086C6.95119 6.38041 6.85464 6.24598 6.78858 6.09615C6.72252 5.94632 6.68841 5.78437 6.68841 5.62062C6.68841 5.45688 6.72252 5.29493 6.78858 5.1451C6.85464 4.99527 6.95119 4.86084 7.07208 4.75039C7.19297 4.63994 7.33554 4.55589 7.49072 4.5036C7.64589 4.45131 7.81025 4.43192 7.97333 4.44667C9.315 4.44667 10.0721 5.82667 10.4458 6.79458H7.97333ZM15.0267 6.79458H12.5542C12.9279 5.83625 13.685 4.44667 15.0267 4.44667C15.1897 4.43192 15.3541 4.45131 15.5093 4.5036C15.6645 4.55589 15.807 4.63994 15.9279 4.75039C16.0488 4.86084 16.1454 4.99527 16.2114 5.1451C16.2775 5.29493 16.3116 5.45688 16.3116 5.62062C16.3116 5.78437 16.2775 5.94632 16.2114 6.09615C16.1454 6.24598 16.0488 6.38041 15.9279 6.49086C15.807 6.60131 15.6645 6.68536 15.5093 6.73765C15.3541 6.78994 15.1897 6.80933 15.0267 6.79458Z" fill="#FF7B29"/>
</svg>
