<svg width="20" height="22" viewBox="0 0 20 22" fill="none" xmlns="http://www.w3.org/2000/svg">
<path d="M17.9667 17.9667H1.1C0.80836 17.967 0.528755 18.083 0.322534 18.2892C0.116313 18.4954 0.000318338 18.775 0 19.0667V20.9C0.000318338 21.1916 0.116313 21.4712 0.322534 21.6775C0.528755 21.8837 0.80836 21.9997 1.1 22H17.9667C18.2583 21.9997 18.5379 21.8837 18.7441 21.6775C18.9504 21.4712 19.0663 21.1916 19.0667 20.9V19.0667C19.0663 18.775 18.9504 18.4954 18.7441 18.2892C18.5379 18.083 18.2583 17.967 17.9667 17.9667ZM18.3333 20.9C18.3332 20.9972 18.2946 21.0904 18.2258 21.1592C18.1571 21.2279 18.0639 21.2666 17.9667 21.2667H1.1C1.00278 21.2666 0.909577 21.2279 0.840835 21.1592C0.772092 21.0904 0.73343 20.9972 0.733333 20.9V19.0667C0.73343 18.9694 0.772092 18.8762 0.840835 18.8075C0.909577 18.7388 1.00278 18.7001 1.1 18.7H17.9667C18.0639 18.7001 18.1571 18.7388 18.2258 18.8075C18.2946 18.8762 18.3332 18.9694 18.3333 19.0667V20.9ZM17.9667 10.6333H1.1C0.80836 10.6337 0.528755 10.7496 0.322534 10.9559C0.116313 11.1621 0.000318338 11.4417 0 11.7333V15.7667C0.000318338 16.0583 0.116313 16.3379 0.322534 16.5441C0.528755 16.7504 0.80836 16.8663 1.1 16.8667H17.9667C18.2583 16.8663 18.5379 16.7504 18.7441 16.5441C18.9504 16.3379 19.0663 16.0583 19.0667 15.7667V11.7333C19.0663 11.4417 18.9504 11.1621 18.7441 10.9559C18.5379 10.7496 18.2583 10.6337 17.9667 10.6333ZM18.3333 15.7667C18.3332 15.8639 18.2946 15.9571 18.2258 16.0258C18.1571 16.0946 18.0639 16.1332 17.9667 16.1333H1.1C1.00278 16.1332 0.909577 16.0946 0.840835 16.0258C0.772092 15.9571 0.73343 15.8639 0.733333 15.7667V11.7333C0.73343 11.6361 0.772092 11.5429 0.840835 11.4742C0.909577 11.4054 1.00278 11.3668 1.1 11.3667H17.9667C18.0639 11.3668 18.1571 11.4054 18.2258 11.4742C18.2946 11.5429 18.3332 11.6361 18.3333 11.7333V15.7667ZM17.9667 0H1.1C0.80836 0.000318338 0.528755 0.116313 0.322534 0.322534C0.116313 0.528755 0.000318338 0.80836 0 1.1V8.43333C0.000318338 8.72497 0.116313 9.00458 0.322534 9.2108C0.528755 9.41702 0.80836 9.53302 1.1 9.53333H17.9667C18.2583 9.53302 18.5379 9.41702 18.7441 9.2108C18.9504 9.00458 19.0663 8.72497 19.0667 8.43333V1.1C19.0663 0.80836 18.9504 0.528755 18.7441 0.322534C18.5379 0.116313 18.2583 0.000318338 17.9667 0ZM18.3333 8.43333C18.3332 8.53055 18.2946 8.62376 18.2258 8.6925C18.1571 8.76124 18.0639 8.7999 17.9667 8.8H1.1C1.00278 8.7999 0.909577 8.76124 0.840835 8.6925C0.772092 8.62376 0.73343 8.53055 0.733333 8.43333V1.1C0.73343 1.00278 0.772092 0.909577 0.840835 0.840835C0.909577 0.772092 1.00278 0.73343 1.1 0.733333H17.9667C18.0639 0.73343 18.1571 0.772092 18.2258 0.840835C18.2946 0.909577 18.3332 1.00278 18.3333 1.1V8.43333Z" fill="#FF7B29"/>
</svg>
