<svg width="26" height="26" viewBox="0 0 26 26" fill="none" xmlns="http://www.w3.org/2000/svg">
<path fill-rule="evenodd" clip-rule="evenodd" d="M19.5002 22.1163H6.50024V23.1996C6.50024 23.4975 6.74399 23.7413 7.04191 23.7413H18.9586C19.2565 23.7413 19.5002 23.4975 19.5002 23.1996V22.1163ZM18.9044 2.96296C18.6823 3.98671 17.5936 7.49129 13.0002 7.49129C8.40691 7.49129 7.31816 3.98671 7.09608 2.96296L4.79941 3.98129C4.65857 4.04629 4.52316 4.12212 4.40399 4.21421L6.11566 7.21504C6.37024 7.65921 6.50024 8.15754 6.50024 8.66671V21.033H19.5002V8.66671C19.5002 8.15754 19.6357 7.65921 19.8848 7.21504L21.5965 4.21421C21.4719 4.12212 21.3419 4.04629 21.2011 3.98129L18.9044 2.96296ZM2.33483 10.5517L2.18316 11.153C2.12358 11.4021 2.23733 11.6567 2.46483 11.7705L5.41691 13.2438V11.8734L2.33483 10.5517ZM23.6657 10.5517L20.5836 11.8734V13.2438L23.5357 11.7705C23.7632 11.6567 23.8823 11.4021 23.8173 11.153L23.6657 10.5517ZM2.60024 9.48462L5.41691 10.6925V8.66671C5.41691 8.34712 5.33566 8.03296 5.17316 7.75129L3.69441 5.16212C3.66733 5.23254 3.64566 5.30837 3.62941 5.37879L2.60024 9.48462ZM20.5836 10.6925L23.4002 9.48462L22.3711 5.37879C22.3548 5.30296 22.3277 5.23254 22.3061 5.16212L20.8273 7.75129C20.6702 8.02754 20.5836 8.34712 20.5836 8.66671V10.6925ZM17.3227 2.25879L17.8861 2.50796C17.8861 2.50796 17.8861 2.53504 17.8807 2.54587C17.8807 2.54587 17.3715 6.40254 13.0002 6.40254C8.62899 6.40254 8.11982 2.55129 8.11982 2.55129C8.11982 2.53504 8.11982 2.52421 8.11441 2.51337L8.67774 2.26421C8.71566 2.67587 8.87816 3.69421 9.62024 4.54462C10.2432 5.25421 11.2723 5.87171 13.0002 5.87171C14.7282 5.87171 15.7573 5.25421 16.3802 4.54462C17.1223 3.69421 17.2902 2.67587 17.3227 2.26421V2.25879ZM9.76649 2.28046C9.80441 2.60546 9.94524 3.26629 10.4327 3.82421C10.904 4.36046 11.6948 4.78296 13.0002 4.78296C14.3057 4.78296 15.0965 4.36046 15.5677 3.82421C16.0552 3.26629 16.1961 2.61087 16.234 2.28046C15.6057 2.56754 14.1594 3.15796 13.0002 3.15796C11.8411 3.15796 10.3948 2.56754 9.76649 2.28046Z" fill="#FF7B29"/>
</svg>
