<svg width="19" height="19" viewBox="0 0 19 19" fill="none" xmlns="http://www.w3.org/2000/svg">
<path d="M18.7197 4.36207C18.6158 3.77642 18.3913 3.21877 18.0604 2.72452C17.7295 2.23027 17.2995 1.81022 16.7976 1.49102C16.2957 1.17182 15.7329 0.960454 15.145 0.870336C14.5571 0.780219 13.9568 0.813318 13.3824 0.967533C12.8079 1.12175 12.2718 1.39371 11.8081 1.76616C11.3443 2.1386 10.9631 2.6034 10.6885 3.13104C10.414 3.65867 10.2521 4.23763 10.2132 4.83115C10.1744 5.42467 10.2593 6.01979 10.4627 6.57874L9.18016 8.95374L8.99016 9.28624L6.00558 14.7092C5.84511 14.9879 5.79672 15.3173 5.87023 15.6305C5.94374 15.9437 6.13365 16.2171 6.40141 16.3954L6.50433 16.4587L5.98974 16.8467L5.84724 16.9496C5.41974 17.2662 5.13475 17.4562 4.75475 17.4008C4.56724 17.3613 4.39422 17.271 4.25459 17.1397C4.11497 17.0085 4.01412 16.8414 3.96308 16.6567C3.73925 15.8858 3.64298 15.0836 3.67808 14.2817V14.25C3.69383 13.9726 3.64644 13.6952 3.53948 13.4388C3.43252 13.1824 3.26878 12.9536 3.06058 12.7696C2.81034 12.6138 2.52935 12.5141 2.2369 12.4772C1.94446 12.4403 1.6475 12.4671 1.36641 12.5558C1.17109 12.5977 0.972339 12.6215 0.772662 12.6271C0.772662 12.5717 0.653912 12.2154 1.43766 10.4658C1.46285 10.418 1.47799 10.3656 1.48214 10.3117C1.48629 10.2578 1.47937 10.2036 1.46179 10.1525C1.44422 10.1014 1.41637 10.0545 1.37996 10.0146C1.34355 9.97463 1.29935 9.94258 1.25008 9.92039C1.20081 9.89819 1.14752 9.88632 1.09349 9.88549C1.03946 9.88467 0.985833 9.89492 0.935914 9.91561C0.885995 9.9363 0.840841 9.967 0.803234 10.0058C0.765627 10.0446 0.736363 10.0907 0.717245 10.1412C-0.0190048 11.875 -0.169421 12.6667 0.178912 13.1021C0.527245 13.5375 1.04975 13.4187 1.53266 13.3396C2.01558 13.2604 2.37183 13.1971 2.5935 13.3792C2.78815 13.6257 2.88156 13.937 2.85474 14.25V14.345C2.81982 15.2256 2.9322 16.1059 3.18724 16.9496C3.28566 17.2759 3.47488 17.5676 3.7328 17.7905C3.99073 18.0133 4.30672 18.1583 4.64391 18.2083H4.88141C5.41496 18.1697 5.91986 17.9522 6.31433 17.5908L6.44891 17.4879C6.70224 17.3058 6.93974 17.1158 7.18516 16.9258C7.45801 17.1062 7.78948 17.1756 8.11177 17.1196C8.43405 17.0637 8.72279 16.8868 8.91891 16.625L12.7981 11.7642L13.0514 11.4554L14.7139 9.37332C15.3562 9.34481 15.9839 9.17288 16.551 8.87013C17.1182 8.56738 17.6103 8.1415 17.9914 7.62374C18.3216 7.15483 18.556 6.6253 18.681 6.06556C18.806 5.50583 18.8191 4.92691 18.7197 4.36207ZM12.4814 10.9408C12.0021 10.7435 11.5434 10.4995 11.1118 10.2125C10.6813 9.92638 10.2808 9.59748 9.91641 9.23082L10.9772 7.33082C11.7362 8.22846 12.7319 8.89501 13.851 9.25457L12.4814 10.9408ZM17.4372 7.06165C17.4111 7.10829 17.382 7.15324 17.3502 7.19624C17.0277 7.63389 16.6084 7.99099 16.1249 8.23958C15.6415 8.48816 15.1071 8.6215 14.5635 8.62915C13.2179 8.33984 12.0323 7.55039 11.2464 6.4204C11.0346 5.89158 10.9543 5.3193 11.0122 4.7526C11.0701 4.18591 11.2646 3.64171 11.5789 3.16665C12.161 4.2459 13.0118 5.15666 14.0489 5.81082C15.0514 6.51468 16.2184 6.94821 17.4372 7.06957V7.06165Z" fill="#FF7B29"/>
</svg>
