<svg width="24" height="22" viewBox="0 0 24 22" fill="none" xmlns="http://www.w3.org/2000/svg">
<path d="M17.7854 21.7487C17.4923 21.7487 17.1973 21.6778 16.9256 21.5353L12.0251 18.9577L7.07523 21.5344C6.77069 21.6963 6.42664 21.769 6.08264 21.7441C5.73864 21.7192 5.40865 21.5977 5.1306 21.3936C4.85073 21.1922 4.63337 20.9159 4.50348 20.5965C4.37359 20.2771 4.33645 19.9275 4.39633 19.588L5.33233 14.1315L1.35254 10.2199C1.10442 9.98019 0.92896 9.67535 0.846332 9.3404C0.763703 9.00544 0.777256 8.65397 0.885433 8.32638C0.991006 7.99826 1.18685 7.70651 1.45053 7.48452C1.71422 7.26254 2.03509 7.1193 2.3764 7.07121L7.85433 6.27507L10.3449 1.28127C10.6587 0.646516 11.2926 0.25293 12.0009 0.25293C12.7092 0.25293 13.343 0.646516 13.6568 1.28127L16.1071 6.24548L21.6254 7.07121C21.9667 7.1193 22.2875 7.26254 22.5512 7.48452C22.8149 7.70651 23.0108 7.99826 23.1163 8.32638C23.2241 8.65402 23.2374 9.00537 23.1548 9.34024C23.0722 9.67511 22.897 9.97995 22.6492 10.2199L18.6847 14.084L19.6054 19.5889C19.6648 19.9284 19.6274 20.2778 19.4975 20.5971C19.3677 20.9164 19.1506 21.1927 18.8712 21.3945C18.5555 21.6237 18.1756 21.7477 17.7854 21.7487ZM2.60323 8.93603L6.56688 12.8002C7.00171 13.2251 7.20074 13.8348 7.09854 14.4337L6.16343 19.891L6.65833 20.7409L6.24054 19.9475L11.1402 17.3708C11.4052 17.2316 11.7001 17.1587 11.9994 17.1586C12.2988 17.1584 12.5937 17.2309 12.8589 17.3699L17.7594 19.9475L17.8365 19.891L16.9005 14.4346C16.8502 14.1395 16.8722 13.8367 16.9647 13.552C17.0571 13.2674 17.2172 13.0094 17.4313 12.8002L21.3958 8.93603L21.3663 8.84369L15.8883 8.04755C15.5921 8.00418 15.3108 7.88959 15.0686 7.7136C14.8264 7.53761 14.6305 7.30548 14.4978 7.03714L12.0475 2.07293C12.0403 2.05858 12.0323 2.04424 11.9991 2.04424L9.5004 7.03714C9.36806 7.30544 9.17252 7.53758 8.93061 7.71359C8.6887 7.88959 8.40765 8.0042 8.11164 8.04755L2.63192 8.84369L1.97654 9.57707L2.60323 8.93603Z" fill="#FF7B29"/>
</svg>
