<svg width="18" height="18" viewBox="0 0 18 18" fill="none" xmlns="http://www.w3.org/2000/svg">
<path d="M16.7582 1.3278L0.24235 7.81216C-0.0718583 7.93553 -0.0832703 8.37599 0.224098 8.51545L3.87529 10.1723C3.97418 10.2172 4.04928 10.3021 4.08182 10.4057L5.64833 15.3909C5.72746 15.6426 6.0318 15.7402 6.24251 15.5814L8.96918 13.5272C9.09939 13.4291 9.27749 13.4244 9.41263 13.5156L13.9857 16.6007C14.2138 16.7546 14.5248 16.6241 14.5749 16.3535L17.2734 1.75271C17.3278 1.45801 17.0372 1.21829 16.7582 1.3278ZM6.75003 10.8794L6.25734 13.6803L4.9855 9.66994L13.7051 4.25795L6.75003 10.8794Z" fill="#FF7B29"/>
</svg>
